nColumns=28
nRows=60
DataType=double
version=3
OpenSimVersion=4.1
endheader
time	ground_force_1_vx	ground_force_1_vy	ground_force_1_vz	ground_force_1_px	ground_force_1_py	ground_force_1_pz	ground_force_1_mx	ground_force_1_my	ground_force_1_mz	ground_force_2_vx	ground_force_2_vy	ground_force_2_vz	ground_force_2_px	ground_force_2_py	ground_force_2_pz	ground_force_2_mx	ground_force_2_my	ground_force_2_mz	ground_force_3_vx	ground_force_3_vy	ground_force_3_vz	ground_force_3_px	ground_force_3_py	ground_force_3_pz	ground_force_3_mx	ground_force_3_my	ground_force_3_mz
0	-8.79723	358.651	-51.832	-0.230341	0.006	-0.331971	0	-2.34361	0	-4.69453	429.504	65.2262	-0.244377	0.006	-0.912988	0	2.91514	0	0	0	0	0	0	0	0	0	0
0.01	-8.87188	357.413	-51.5056	-0.230298	0.006	-0.332079	0	-2.29988	0	-5.10362	430.13	65.496	-0.244291	0.006	-0.912964	0	2.8851	0	0	0	0	0	0	0	0	0	0
0.02	-8.97489	355.722	-51.0771	-0.230248	0.006	-0.332196	0	-2.25219	0	-5.58999	430.801	65.8151	-0.244158	0.006	-0.912945	0	2.85649	0	0	0	0	0	0	0	0	0	0
0.03	-9.10861	353.51	-50.5325	-0.23019	0.006	-0.332321	0	-2.20133	0	-6.15535	431.495	66.1849	-0.243975	0.006	-0.912935	0	2.83029	0	0	0	0	0	0	0	0	0	0
0.04	-9.27469	350.709	-49.8568	-0.230121	0.006	-0.332457	0	-2.14799	0	-6.79952	432.191	66.6083	-0.243743	0.006	-0.912937	0	2.80676	0	0	0	0	0	0	0	0	0	0
0.05	-9.47414	347.251	-49.034	-0.230039	0.006	-0.332607	0	-2.09285	0	-7.52016	432.876	67.0914	-0.243469	0.006	-0.912954	0	2.78551	0	0	0	0	0	0	0	0	0	0
0.06	-9.70716	343.061	-48.0482	-0.22994	0.006	-0.332773	0	-2.03667	0	-8.31291	433.549	67.6427	-0.243165	0.006	-0.912988	0	2.76541	0	0	0	0	0	0	0	0	0	0
0.07	-9.97296	338.063	-46.884	-0.22982	0.006	-0.332959	0	-1.9802	0	-9.17113	434.223	68.2733	-0.242851	0.006	-0.913037	0	2.74465	0	0	0	0	0	0	0	0	0	0
0.08	-10.2704	332.186	-45.5273	-0.229676	0.006	-0.333167	0	-1.92414	0	-10.0854	434.927	68.996	-0.242551	0.006	-0.913097	0	2.72082	0	0	0	0	0	0	0	0	0	0
0.09	-10.5978	325.37	-43.967	-0.229503	0.006	-0.333401	0	-1.86914	0	-11.0422	435.704	69.8246	-0.242298	0.006	-0.913164	0	2.69133	0	0	0	0	0	0	0	0	0	0
0.1	-10.9522	317.579	-42.1961	-0.2293	0.006	-0.333662	0	-1.81567	0	-12.0217	436.613	70.7739	-0.242129	0.006	-0.913228	0	2.65372	0	0	0	0	0	0	0	0	0	0
0.11	-11.3272	308.807	-40.2127	-0.229068	0.006	-0.333956	0	-1.76401	0	-12.9953	437.722	71.8585	-0.242093	0.006	-0.913279	0	2.606	0	0	0	0	0	0	0	0	0	0
0.12	-11.7116	299.086	-38.0225	-0.228813	0.006	-0.334287	0	-1.71432	0	-13.9258	439.102	73.0908	-0.242239	0.006	-0.913307	0	2.54675	0	0	0	0	0	0	0	0	0	0
0.13	-12.0872	288.491	-35.6397	-0.228546	0.006	-0.334658	0	-1.66653	0	-14.7675	440.814	74.4781	-0.242624	0.006	-0.913296	0	2.47517	0	0	0	0	0	0	0	0	0	0
0.14	-12.4276	277.144	-33.0893	-0.228284	0.006	-0.335075	0	-1.62038	0	-15.467	442.899	76.0185	-0.243299	0.006	-0.913234	0	2.39122	0	0	0	0	0	0	0	0	0	0
0.15	-12.698	265.214	-30.4069	-0.228056	0.006	-0.335542	0	-1.57547	0	-15.9671	445.362	77.6986	-0.244311	0.006	-0.913106	0	2.29561	0	0	0	0	0	0	0	0	0	0
0.16	-12.8593	252.911	-27.6384	-0.227894	0.006	-0.336063	0	-1.53135	0	-16.2129	448.169	79.4924	-0.245699	0.006	-0.9129	0	2.18966	0	0	0	0	0	0	0	0	0	0
0.17	-12.8726	240.477	-24.8384	-0.227838	0.006	-0.336638	0	-1.48733	0	-16.1585	451.234	81.3615	-0.247483	0.006	-0.912602	0	2.07502	0	0	0	0	0	0	0	0	0	0
0.18	-12.7049	228.17	-22.0671	-0.227936	0.006	-0.337264	0	-1.44233	0	-15.7715	454.429	83.2553	-0.249671	0.006	-0.912206	0	1.95345	0	0	0	0	0	0	0	0	0	0
0.19	-12.3308	216.261	-19.3887	-0.228238	0.006	-0.337936	0	-1.39498	0	-15.0377	457.581	85.1111	-0.252248	0.006	-0.911706	0	1.82666	0	0	0	0	0	0	0	0	0	0
0.2	-11.7358	205.031	-16.8675	-0.228801	0.006	-0.338641	0	-1.3436	0	-13.9648	460.482	86.8557	-0.255185	0.006	-0.911102	0	1.69632	0	0	0	0	0	0	0	0	0	0
0.21	-10.9166	194.774	-14.5664	-0.229687	0.006	-0.339365	0	-1.28631	0	-12.5851	462.896	88.4083	-0.258432	0.006	-0.910394	0	1.56399	0	0	0	0	0	0	0	0	0	0
0.22	-9.88134	185.786	-12.5447	-0.230961	0.006	-0.340087	0	-1.22119	0	-10.9547	464.566	89.6849	-0.261927	0.006	-0.90959	0	1.43121	0	0	0	0	0	0	0	0	0	0
0.23	-8.64527	178.357	-10.8575	-0.232683	0.006	-0.340782	0	-1.14653	0	-9.15107	465.23	90.6015	-0.265599	0.006	-0.908698	0	1.29935	0	0	0	0	0	0	0	0	0	0
0.24	-7.22493	172.755	-9.55251	-0.234899	0.006	-0.341422	0	-1.06134	0	-7.2681	464.639	91.0797	-0.26937	0.006	-0.90773	0	1.16966	0	0	0	0	0	0	0	0	0	0
0.25	-5.6311	169.206	-8.66732	-0.23763	0.006	-0.34198	0	-0.965771	0	-5.40619	462.57	91.0522	-0.273166	0.006	-0.906699	0	1.04328	0	0	0	0	0	0	0	0	0	0
0.26	-3.86436	167.872	-8.22671	-0.240852	0.006	-0.342434	0	-0.86155	0	-3.66133	458.854	90.4688	-0.276921	0.006	-0.905616	0	0.921068	0	0	0	0	0	0	0	0	0	0
0.27	-1.91716	168.838	-8.24024	-0.244495	0.006	-0.342771	0	-0.752109	0	-2.11369	453.4	89.3026	-0.280581	0.006	-0.904493	0	0.803549	0	0	0	0	0	0	0	0	0	0
0.28	0.218004	172.102	-8.70007	-0.24844	0.006	-0.342993	0	-0.64228	0	-0.816896	446.221	87.5553	-0.284108	0.006	-0.90334	0	0.691166	0	0	0	0	0	0	0	0	0	0
0.29	2.54028	177.576	-9.5807	-0.25254	0.006	-0.343114	0	-0.537606	0	0.208532	437.435	85.2593	-0.287475	0.006	-0.902168	0	0.584386	0	0	0	0	0	0	0	0	0	0
0.3	5.03558	185.101	-10.8424	-0.256638	0.006	-0.343153	0	-0.443507	0	0.974562	427.265	82.4755	-0.290669	0.006	-0.900984	0	0.483815	0	0	0	0	0	0	0	0	0	0
0.31	7.67439	194.458	-12.4375	-0.260599	0.006	-0.343133	0	-0.364612	0	1.5211	416	79.2863	-0.293686	0.006	-0.899797	0	0.390347	0	0	0	0	0	0	0	0	0	0
0.32	10.4099	205.405	-14.317	-0.264313	0.006	-0.343072	0	-0.304402	0	1.90882	403.949	75.7853	-0.296523	0.006	-0.898619	0	0.305261	0	0	0	0	0	0	0	0	0	0
0.33	13.1803	217.703	-16.4338	-0.267705	0.006	-0.342986	0	-0.265	0	2.20931	391.4	72.0654	-0.299179	0.006	-0.897463	0	0.23006	0	0	0	0	0	0	0	0	0	0
0.34	15.916	231.13	-18.743	-0.270728	0.006	-0.342889	0	-0.247113	0	2.49305	378.588	68.2105	-0.301651	0.006	-0.896341	0	0.166144	0	0	0	0	0	0	0	0	0	0
0.35	18.5485	245.489	-21.199	-0.273363	0.006	-0.342789	0	-0.250076	0	2.81835	365.695	64.2913	-0.30393	0.006	-0.895269	0	0.114494	0	0	0	0	0	0	0	0	0	0
0.36	21.0157	260.594	-23.7517	-0.275604	0.006	-0.342697	0	-0.272024	0	3.22579	352.863	60.3661	-0.306003	0.006	-0.894263	0	0.075506	0	0	0	0	0	0	0	0	0	0
0.37	23.2652	276.257	-26.3461	-0.277459	0.006	-0.342621	0	-0.310228	0	3.73471	340.214	56.4855	-0.307851	0.006	-0.893337	0	0.048632	0	0	0	0	0	0	0	0	0	0
0.38	25.2563	292.277	-28.923	-0.278943	0.006	-0.342569	0	-0.361321	0	4.34423	327.865	52.6941	-0.309449	0.006	-0.892505	0	0.032409	0	0	0	0	0	0	0	0	0	0
0.39	26.9596	308.434	-31.4223	-0.280073	0.006	-0.342547	0	-0.421627	0	5.0436	315.915	49.0275	-0.31077	0.006	-0.891778	0	0.025006	0	0	0	0	0	0	0	0	0	0
0.4	28.3569	324.499	-33.7871	-0.280871	0.006	-0.342559	0	-0.487526	0	5.82378	304.427	45.5104	-0.311794	0.006	-0.891163	0	0.024899	0	0	0	0	0	0	0	0	0	0
0.41	29.4372	340.257	-35.9713	-0.281356	0.006	-0.342603	0	-0.555888	0	6.68055	293.425	42.16	-0.312504	0.006	-0.890666	0	0.031371	0	0	0	0	0	0	0	0	0	0
0.42	30.1891	355.56	-37.9468	-0.281545	0.006	-0.342676	0	-0.62423	0	7.61118	282.895	38.9898	-0.312897	0.006	-0.890289	0	0.044778	0	0	0	0	0	0	0	0	0	0
0.43	30.5957	370.357	-39.7059	-0.281452	0.006	-0.342772	0	-0.690631	0	8.61151	272.798	36.0093	-0.312974	0.006	-0.890031	0	0.066307	0	0	0	0	0	0	0	0	0	0
0.44	30.6313	384.702	-41.2597	-0.28109	0.006	-0.342882	0	-0.75377	0	9.6716	263.081	33.2215	-0.312754	0.006	-0.889886	0	0.097542	0	0	0	0	0	0	0	0	0	0
0.45	30.2599	398.729	-42.6314	-0.280473	0.006	-0.343001	0	-0.812999	0	10.768	253.698	30.6248	-0.312258	0.006	-0.889846	0	0.139915	0	0	0	0	0	0	0	0	0	0
0.46	29.4427	412.612	-43.8519	-0.279619	0.006	-0.343119	0	-0.86852	0	11.8618	244.625	28.2159	-0.311518	0.006	-0.889901	0	0.19439	0	0	0	0	0	0	0	0	0	0
0.47	28.1536	426.518	-44.959	-0.278554	0.006	-0.343229	0	-0.921824	0	12.9042	235.872	25.9929	-0.310565	0.006	-0.890037	0	0.261524	0	0	0	0	0	0	0	0	0	0
0.48	26.3944	440.576	-45.9984	-0.277311	0.006	-0.343322	0	-0.975887	0	13.8463	227.481	23.9585	-0.309437	0.006	-0.890241	0	0.341456	0	0	0	0	0	0	0	0	0	0
0.49	24.1993	454.877	-47.0188	-0.275931	0.006	-0.34339	0	-1.0347	0	14.6453	219.529	22.1229	-0.308179	0.006	-0.8905	0	0.433796	0	0	0	0	0	0	0	0	0	0
0.5	21.6345	469.461	-48.061	-0.274459	0.006	-0.343426	0	-1.10264	0	15.268	212.128	20.5031	-0.306843	0.006	-0.890802	0	0.537418	0	0	0	0	0	0	0	0	0	0
0.51	18.7925	484.315	-49.1507	-0.272939	0.006	-0.343425	0	-1.18415	0	15.6938	205.412	19.1192	-0.305484	0.006	-0.891137	0	0.65023	0	0	0	0	0	0	0	0	0	0
0.52	15.7836	499.345	-50.2982	-0.271409	0.006	-0.343384	0	-1.28339	0	15.9126	199.512	17.9909	-0.304158	0.006	-0.891494	0	0.769061	0	0	0	0	0	0	0	0	0	0
0.53	12.7226	514.394	-51.5009	-0.269899	0.006	-0.343301	0	-1.40368	0	15.9247	194.527	17.1321	-0.302913	0.006	-0.891867	0	0.889868	0	0	0	0	0	0	0	0	0	0
0.54	9.70978	529.285	-52.7473	-0.268423	0.006	-0.343175	0	-1.54724	0	15.7469	190.495	16.5408	-0.30179	0.006	-0.892244	0	1.00826	0	0	0	0	0	0	0	0	0	0
0.55	6.82097	543.853	-54.0206	-0.266984	0.006	-0.343006	0	-1.7149	0	15.4193	187.39	16.1911	-0.300828	0.006	-0.892607	0	1.11984	0	0	0	0	0	0	0	0	0	0
0.56	4.10476	557.963	-55.3025	-0.265575	0.006	-0.342796	0	-1.90593	0	14.9986	185.153	16.0361	-0.300052	0.006	-0.892933	0	1.22034	0	0	0	0	0	0	0	0	0	0
0.57	1.58708	571.511	-56.576	-0.264182	0.006	-0.342544	0	-2.11822	0	14.5412	183.731	16.022	-0.299466	0.006	-0.8932	0	1.30567	0	0	0	0	0	0	0	0	0	0
0.58	-0.722109	584.42	-57.8239	-0.262787	0.006	-0.342253	0	-2.34855	0	14.0902	183.083	16.102	-0.299051	0.006	-0.893395	0	1.37203	0	0	0	0	0	0	0	0	0	0
0.59	-2.82439	596.635	-59.0266	-0.261371	0.006	-0.341925	0	-2.59313	0	13.677	183.16	16.2386	-0.298763	0.006	-0.893516	0	1.41612	0	0	0	0	0	0	0	0	0	0
